# xmcd CD database file
#
# Track frame offsets:
#	150
#	11610
#	25631
#	40224
#	56238
#	69592
#	101278
#	124532
#	146228
#	157737
#	175574
#	177783
#
# Disc length: 3010 seconds
#
# Revision: 0
# Processed by: cddbd v1.4PL0 Copyright (c) Steve Scherf et al.
# Submitted via: CDex 1.50Beta7
#
DISCID=900bc00c
DTITLE=Chris Aaron Band - Circumstance
DYEAR=1996
DGENRE=Blues
TTITLE0=Little Old Town in Texas
TTITLE1=Grain of Salt
TTITLE2=Circumstance
TTITLE3=Soul Searchin'
TTITLE4=Texas Heat
TTITLE5=Daddy's Little Girl
TTITLE6=Not Fade Away
TTITLE7=Trouble in Mind
TTITLE8=More Money
TTITLE9=Kind Heated Woman Blues
TTITLE10=Encore
TTITLE11=Voodoo Chile/3rd Stone from the Sun
EXTD=YEAR: 1996
EXTT0=
EXTT1=
EXTT2=
EXTT3=
EXTT4=
EXTT5=
EXTT6=
EXTT7=
EXTT8=
EXTT9=
EXTT10=
EXTT11=
PLAYORDER=
